<svg xmlns="http://www.w3.org/2000/svg" viewBox="0 0 576 512" fill="currentColor" aria-hidden="true">
  <path d="M549.655 124.083c-6.281-23.652-24.787-42.276-48.289-48.597C458.781 64 288 64 288 64S117.22 64 74.634 75.486c-23.502 6.32-42.008 24.944-48.289 48.597-11.412 42.867-11.412 132.32-11.412 132.32s0 89.453 11.412 132.32c6.281 23.652 24.787 42.276 48.289 48.597C117.22 448 288 448 288 448s170.781 0 213.367-11.486c23.502-6.32 42.008-24.944 48.289-48.597 11.412-42.867 11.412-132.32 11.412-132.32s0-89.453-11.412-132.32zM232.09 338.59V173.41L361.82 256 232.09 338.59z"/>
</svg>
